<svg width="103" height="151" viewBox="0 0 103 151" fill="none" xmlns="http://www.w3.org/2000/svg">
<g clip-path="url(#clip0_1854_821)">
<path d="M93.0847 92.7357C93.0847 92.7357 79.4613 89.1824 75.0986 88.8461C73.0486 88.6897 69.675 89.244 66.6646 89.8694C67.7636 91.575 69.3453 95.2798 67.0803 100.359C67.5581 100.245 68.0073 100.145 68.423 100.084C74.4535 99.1742 86.156 98.5678 90.1842 99.8801C92.6069 100.671 94.9627 97.9282 95.0248 95.6162C95.0678 94.0765 93.0847 92.7357 93.0847 92.7357Z" fill="#C1592B"/>
<path d="M70.9221 97.1322C69.2327 97.2673 67.5558 97.5254 65.9047 97.9045L65.2166 98.9657C65.2166 98.9657 66.8173 98.9657 70.1909 98.7051C72.1156 98.5855 74.0122 98.1864 75.82 97.5207C74.2043 97.2311 72.5636 97.101 70.9221 97.1322Z" fill="#AF4922"/>
<path d="M60.3283 91.3855L50.1072 93.8775C50.1072 93.8775 50.4895 101.292 54.1832 102.623C57.4851 103.812 63.119 101.325 67.0851 100.359C69.3501 95.2798 67.7684 91.575 66.6694 89.8694C63.2623 90.58 60.3283 91.3855 60.3283 91.3855Z" fill="#0F0F0F"/>
<path d="M38.2756 20.8032C36.087 24.4607 36.1778 26.8106 36.0871 30.2786C36.0249 32.7137 35.8672 38.5032 31.3086 40.7915C29.0388 41.9286 15.6208 52.8774 15.6208 52.8774L18.3398 56.0137C21.5366 53.9576 27.2517 50.4327 30.3863 49.4047C34.8972 47.9312 37.1765 46.9742 38.4381 45.4108C39.6996 43.8473 39.2456 35.3432 41.5297 32.1689C42.8562 30.3104 44.3414 28.5684 45.9689 26.9622C45.9689 26.9622 46.5519 28.7151 47.1779 31.1219C47.8755 29.1368 48.3438 27.7439 48.3438 27.7439L45.3812 16.4729C42.624 16.6624 39.518 18.728 38.2756 20.8032Z" fill="#D56432"/>
<path d="M41.5393 32.15C39.2552 35.3243 39.7091 43.8285 38.4476 45.4156C37.1861 47.0027 34.9068 47.9361 30.3959 49.4095C27.2612 50.4376 21.5462 53.9624 18.3494 56.0186L19.6873 57.5015C19.6873 57.5015 32.3981 51.513 34.9785 50.3949C38.677 48.7651 41.7113 44.5439 42.7244 42.464C44.1006 39.6498 45.9689 34.5331 47.1588 31.1409C46.5328 28.7341 45.9498 26.9812 45.9498 26.9812C44.334 28.5766 42.8584 30.3058 41.5393 32.15Z" fill="#D87745"/>
<path d="M58.9233 19.5288C59.1574 19.7846 57.9676 24.0344 56.2091 27.0144C54.4506 29.9944 50.5753 34.9216 49.2039 36.992C49.1055 37.1532 48.9507 37.273 48.769 37.3284C49.6339 38.3562 50.551 39.3398 51.5167 40.2752C51.5167 40.2752 57.0024 42.4498 61.1596 38.8255C65.3169 35.2011 63.9455 22.9163 63.9455 22.9163L58.9233 19.5288Z" fill="#C1592B"/>
<path d="M54.3886 16.4729L47.9233 22.9162C47.9233 22.9162 45.8399 30.4965 46.2079 33.0312C46.3799 34.2251 47.5602 35.8738 48.7691 37.333C48.9508 37.2776 49.1056 37.1579 49.204 36.9966C50.5754 34.9262 54.4603 29.999 56.2092 27.019C57.9581 24.039 59.1575 19.7893 58.9234 19.5335L54.3886 16.4729Z" fill="#AF4922"/>
<path d="M46.6713 64.9113C45.3357 68.5875 44.3752 72.3872 43.8042 76.2534L51.5883 69.5116C51.5883 69.5116 50.4845 62.9783 46.6713 64.9113Z" fill="#0058D8"/>
<path d="M66.9941 76.405C60.7821 74.3488 47.4023 94.3751 47.4023 94.3751C47.4023 94.3751 54.398 101.747 59.6496 97.2461C64.1605 93.3802 68.4228 88.8462 68.4228 88.8462C66.8221 84.9032 66.3283 80.6039 66.9941 76.405Z" fill="#0058D8"/>
<path d="M63.1188 88.8223C61.021 90.5137 59.6496 92.6551 58.3689 93.0863C57.0883 93.5174 54.183 92.8636 54.183 92.8636L53.1604 95.0808C53.1604 95.0808 56.7012 95.4125 58.584 94.9624C60.4667 94.5123 61.9719 91.7644 63.3051 90.6416C64.8294 89.3577 67.8303 87.2352 67.8303 87.2352L67.4146 85.7712C65.9241 86.7046 64.4897 87.7234 63.1188 88.8223Z" fill="#0F0F0F"/>
<path d="M63.4629 63.7269C63.4629 63.7269 62.8178 61.7512 65.9334 60.7421C69.049 59.733 68.3226 57.2931 67.7206 55.2985C67.1185 53.3039 63.8213 53.9246 60.9495 55.2985C58.0776 56.6724 58.3022 53.3371 61.3413 53.2186C64.3804 53.1002 65.3552 50.9066 65.6132 48.5331C65.8713 46.1595 61.9004 46.0789 61.4416 43.6058C60.9829 41.1328 62.3161 34.7606 62.3161 34.7606C66.0956 33.7655 69.9476 33.0638 73.837 32.6618C72.2506 27.9809 68.9343 24.3376 66.9942 22.9163C61.4512 18.9366 54.0255 16.4778 54.0255 16.4778L55.048 19.2446L63.2384 22.6842C63.2384 22.6842 55.4399 39.7399 50.4798 35.9118C45.5198 32.0838 47.4981 27.256 47.4981 27.256L44.0289 22.6842C43.7736 26.6282 43.7736 30.5844 44.0289 34.5284C44.4828 39.9483 48.8074 52.5317 47.2448 54.7631C43.8234 59.6524 47.8182 60.5621 47.8182 60.5621L45.2092 65.4561C45.2092 65.4561 56.2331 74.0882 63.3052 71.8994C67.1446 70.6806 71.048 69.67 74.9982 68.872C74.6673 67.4363 74.1315 66.0547 73.4069 64.7691C71.7727 62.0118 63.4629 63.7269 63.4629 63.7269Z" fill="#0092FF"/>
<path d="M74.2717 34.1163C74.1475 33.6425 73.9993 33.1309 73.8369 32.6523C69.9472 33.0575 66.0952 33.7624 62.316 34.7606C62.316 34.7606 60.978 41.1565 61.4415 43.6343C61.905 46.1122 65.8664 46.1927 65.6131 48.5616C65.3598 50.9304 64.3803 53.1334 61.3412 53.2471C58.3021 53.3608 58.0775 56.7246 60.9493 55.327C63.8212 53.9294 67.1279 53.3182 67.7204 55.327C68.3129 57.3358 69.0536 59.7662 65.9333 60.7706C62.8129 61.775 63.4628 63.7554 63.4628 63.7554C63.4628 63.7554 71.7535 62.0403 73.4068 64.7787C74.1314 66.0643 74.6672 67.4459 74.998 68.8816C76.2357 68.6447 76.833 68.5783 76.833 68.5783C76.833 68.5783 76.833 64.2291 75.0984 61.5097C75.9155 53.3277 75.9585 40.9623 74.2717 34.1163Z" fill="#007BE0"/>
<path d="M63.119 25.0529C61.9005 26.7442 58.5842 34.1445 56.6011 36.2291C54.9095 38.0105 52.4486 40.5167 49.9925 38.2237C47.5364 35.9306 46.0741 33.6328 46.2414 31.3351C46.4086 29.0373 46.7192 26.948 46.7192 26.948H45.9403C45.9403 26.948 45.1949 30.2359 45.4386 32.0457C45.6823 33.8555 47.0681 37.9678 50.0928 39.536C53.1176 41.1042 56.3049 38.9201 58.006 36.4518C59.7071 33.9834 63.4726 26.3652 64.8153 25.1571C65.6003 24.4685 66.3289 23.7191 66.9943 22.9162L65.9621 22.2197C64.8802 23.0217 63.9223 23.9761 63.119 25.0529Z" fill="#0F0F0F"/>
<path d="M52.8691 4.29707C49.4621 1.72924 41.4008 0.90488 38.4572 9.16269C38.1712 9.79991 38.0356 10.4934 38.0606 11.1904C37.9842 12.3654 38.5385 14.8527 38.8586 16.473C40.1727 23.1057 44.3587 28.1751 47.4933 26.8106C49.8491 25.7778 54.814 22.125 56.2093 17.5626C57.7814 12.427 55.5259 6.29638 52.8691 4.29707Z" fill="#D87745"/>
<path d="M38.8586 9.59394C38.9477 9.79213 39.0794 9.96862 39.2444 10.111C39.4095 10.2534 39.604 10.3583 39.8143 10.4183C40.5454 10.6552 41.5633 11.1905 42.519 10.4183C43.4746 9.64606 44.4303 9.94453 45.1471 10.1246C46.4612 10.4183 46.1267 11.1479 47.2592 11.6643C49.7297 12.7872 49.529 13.8342 49.7297 14.7675C50.045 16.2267 51.297 16.4731 52.224 16.4731C51.9564 14.1516 51.5359 10.6552 51.5359 10.6552C51.5359 10.6552 41.1332 4.25929 38.8586 9.59394Z" fill="#C1592B"/>
<path d="M57.3991 5.38665C56.9213 4.76601 55.5642 3.96534 54.6515 4.04588C54.6894 3.58978 54.5993 3.13219 54.3914 2.72364C54.1834 2.31509 53.8655 1.97148 53.473 1.73079C53.0804 1.49009 52.6283 1.36167 52.1668 1.35971C51.7052 1.35775 51.252 1.48232 50.8574 1.71967C50.3795 0.971114 49.9495 0.236772 48.946 0.0425259C48.1528 -0.118556 47.2353 0.213083 46.5185 0.412066C46.1746 0.226249 45.797 0.109663 45.4075 0.06901C45.018 0.0283569 44.6242 0.0644382 44.2488 0.175181C43.8907 0.320415 43.5653 0.534641 43.2913 0.805452C43.0174 1.07626 42.8003 1.39827 42.6528 1.75284C41.5394 1.63439 40.9421 1.44015 40.1871 2.34505C39.8096 2.81882 39.7905 3.49157 39.8812 4.39647C38.873 4.35857 38.0368 4.59546 37.75 5.38665C37.4633 6.17785 37.7501 6.68952 38.1323 7.6039C36.6988 9.29526 37.2388 10.7497 38.0702 11.9721C38.5815 10.4134 38.9112 9.88747 40.7031 9.92537C41.9217 9.9538 43.3361 9.02521 45.0038 9.21472C46.4134 9.3758 47.0107 9.84957 47.847 10.8729C49.0941 12.4079 50.6424 12.8106 50.7809 14.2698C50.8263 14.7235 50.98 15.16 51.2293 15.5431C51.4786 15.9262 51.8163 16.2449 52.2145 16.4729C52.2145 16.4729 53.5525 13.4407 55.0481 14.3599C56.1328 15.061 56.2332 17.5625 56.2332 17.5625C57.8053 15.8044 58.6798 13.5399 58.6941 11.1903C58.6941 10.3707 58.0347 9.19103 57.8292 8.29086C57.9605 7.80324 57.9902 7.29416 57.9162 6.79479C57.8423 6.29542 57.6663 5.81627 57.3991 5.38665Z" fill="#0F0F0F"/>
<path d="M67.8209 26.4553C62.4546 27.9903 61.9242 35.3433 62.3447 38.1006C62.3447 38.2048 62.3782 38.3091 62.3925 38.4133C64.0315 37.8827 66.8652 37.0394 68.2318 37.063C69.7418 37.0915 70.9173 37.2525 73.2014 38.5175C73.3543 33.5903 72.4464 25.1335 67.8209 26.4553Z" fill="#D87745"/>
<path d="M62.3926 38.4132C62.794 40.7442 63.7449 43.6247 65.1689 44.9892C66.5929 46.3536 72.4465 44.5438 73.0056 40.9242C73.115 40.1261 73.1804 39.3227 73.2015 38.5175C70.9174 37.2525 69.7419 37.0962 68.2319 37.063C66.8652 37.0393 64.0316 37.8826 62.3926 38.4132Z" fill="#C1592B"/>
<path d="M37.3199 89.1918C36.3212 91.357 35.7 94.0385 35.1648 96.4737C36.3343 97.906 37.7168 99.1537 39.2647 100.174C40.7269 101.074 44.7074 101.42 46.4993 101.534C51.5072 94.8155 61.4416 85.2359 61.4416 85.2359L39.0879 83.9377C38.6639 85.7396 38.072 87.4985 37.3199 89.1918Z" fill="#D87745"/>
<path d="M35.7 114.581C32.7564 113.989 31.0983 110.521 30.3959 108.626C29.3405 111.526 28.6332 114.54 28.2886 117.604C27.8967 121.607 24.4419 134.707 23.0848 136.474C21.7277 138.241 29.7221 138.99 29.7221 138.99C29.7221 138.99 34.5675 127.439 38.1943 123.138C40.0627 120.925 41.0614 117.926 41.7925 114.766C39.7694 115.106 37.6983 115.043 35.7 114.581Z" fill="#D87745"/>
<path d="M35.1648 122.015C35.1648 122.015 37.7977 120.371 38.4476 117.666C39.0975 114.96 39.5419 114.581 39.5419 114.581H37.1526L35.1648 122.015Z" fill="#C1592B"/>
<path d="M35.1647 96.4739C34.5626 99.2028 34.0704 101.619 33.2533 102.633C32.4362 103.647 31.3754 105.845 30.3862 108.636C31.0887 110.531 32.7468 113.999 35.6903 114.591C37.6949 115.047 39.7711 115.102 41.7972 114.752C42.5044 111.786 42.9966 108.707 43.8137 106.063C44.1673 104.916 45.1565 103.329 46.4897 101.543C44.6978 101.43 40.7173 101.069 39.2551 100.183C37.7098 99.1597 36.3306 97.9089 35.1647 96.4739Z" fill="#0F0F0F"/>
<path d="M91.7993 35.021C88.7411 32.7327 82.682 32.3016 77.8175 28.8288C70.7215 23.769 66.6646 27.0143 66.6646 27.0143L68.2319 37.063C70.2197 37.1009 71.6246 37.3662 75.7437 40.0809C78.083 41.6628 80.6648 42.8595 83.3892 43.6247C84.7781 43.5924 86.1621 43.4482 87.5274 43.1935C87.5274 43.1367 84.3306 45.4771 84.6603 51.1813C84.775 53.1427 84.4739 57.8141 83.8145 59.6428C83.0356 61.7795 80.4266 64.8543 79.0647 66.413C77.3683 68.3555 78.2428 69.322 79.5425 68.1754C80.5435 67.2901 81.685 66.5746 82.9209 66.0577C82.9209 66.0577 83.781 71.9798 83.265 74.4103C82.7489 76.8407 85.0569 80.3371 86.328 78.6742C88.1533 76.3053 90.3514 70.7006 90.3514 67.858C90.3514 64.7217 88.5834 61.9075 89.0995 60.3677C89.4579 59.3065 90.1746 56.6581 93.1707 51.1718C95.0487 47.7275 95.4835 44.0653 96.9505 40.9005C97.782 39.1523 95.1873 37.5557 91.7993 35.021Z" fill="#D87745"/>
<path d="M68.2319 37.063L68.9678 41.8007C68.9678 41.8007 75.6863 42.2081 77.7841 42.9425C79.5985 43.5074 81.4991 43.7512 83.3988 43.6626C80.6744 42.8974 78.0926 41.7007 75.7532 40.1188C71.6246 37.3662 70.2198 37.1009 68.2319 37.063Z" fill="#C1592B"/>
<path d="M54.035 73.6097C51.6457 72.7617 51.6075 70.2412 51.6075 70.2412C51.5399 69.9283 51.4888 69.612 51.4546 69.2937C51.0102 69.0521 50.561 68.8199 50.1023 68.5925C49.337 68.2416 48.6207 67.7941 47.9711 67.2612C47.5697 68.7583 46.4181 72.9796 46.1648 73.2592C41.0949 78.7975 33.6309 86.9701 33.2629 87.5007C37.0857 91.7315 34.988 91.7978 38.8824 94.8725C40.9193 96.4907 43.3758 97.5056 45.9689 97.8004C47.2161 95.569 48.9459 92.4847 49.7391 91.1061C51.0532 88.8225 57.4659 83.9995 59.3964 82.5782C61.3269 81.1569 61.0115 77.6321 60.5194 76.7224C60.0272 75.8128 56.4099 74.4531 54.035 73.6097Z" fill="#0092FF"/>
<path d="M68.5329 71.1651C65.9239 71.6389 63.3292 72.1126 60.6676 72.0368C58.2305 71.9752 55.6167 71.5631 53.4616 70.3881C52.7878 70.0138 52.1236 69.6348 51.4546 69.27C51.4889 69.5883 51.5399 69.9046 51.6076 70.2176C51.6076 70.2176 51.6601 72.738 54.035 73.5861C56.4099 74.4341 60.0033 75.7986 60.4955 76.7035C60.9877 77.6084 61.2983 81.1522 59.3726 82.5593C57.4468 83.9664 51.0294 88.8083 49.7153 91.0871C48.9221 92.4658 47.1922 95.55 45.9451 97.7815C49.1065 98.1069 52.2971 97.5575 55.1627 96.1944C55.1627 96.1944 56.3096 91.3145 61.4417 85.2171C66.5737 79.1197 72.6615 78.1106 74.2958 72.5153C74.5053 71.802 74.6744 71.0776 74.8023 70.3455C74.2719 70.3455 73.7462 70.3455 73.2206 70.3976C71.6456 70.5725 70.081 70.8287 68.5329 71.1651Z" fill="#007BE0"/>
<path d="M49.7153 54.9574C49.7153 54.9574 56.6489 56.7103 60.9495 55.3174C65.2502 53.9246 70.1911 48.552 70.1911 48.552C70.1911 48.552 65.4986 50.9209 63.3053 51.8684C61.112 52.8159 52.9456 54.7158 49.7153 54.9574Z" fill="#0058D8"/>
<path d="M69.0919 59.9697C67.8734 59.6096 58.8373 59.6096 57.5041 59.7281C56.1709 59.8465 50.3698 60.5145 47.8181 60.5761C50.5214 62.5788 53.6519 63.9403 56.9689 64.5558C62.5119 65.5886 70.922 62.1443 70.922 62.1443C70.922 62.1443 70.3104 60.344 69.0919 59.9697Z" fill="#0058D8"/>
<path d="M56.7252 71.0845C52.7065 69.8195 46.9246 66.7163 46.9246 66.7163C46.9246 66.7163 47.928 69.9616 57.0693 72.8374C59.8838 73.7234 65.6705 72.899 67.8113 72.5342C69.9548 72.221 72.133 72.221 74.2765 72.5342C74.6445 71.341 74.8659 70.1082 74.936 68.8625C74.936 68.8625 72.1215 69.3694 69.2018 70.0943C66.2822 70.8192 60.7439 72.3542 56.7252 71.0845Z" fill="#0058D8"/>
<path d="M28.9288 135.673C27.4666 133.731 26.3293 132.76 24.6282 132.76C24.6282 132.76 20.2654 136.417 18.3158 137.55C16.3662 138.682 13.3223 140.951 10.7849 142.249C8.24755 143.548 7.10072 145.405 7.58334 146.442C8.53904 148.423 10.5078 150.161 13.9148 150.133C15.6446 150.133 19.3957 147.106 22.2628 146.134C25.1299 145.163 29.5691 143.548 30.305 141.823C31.7672 138.412 31.9918 136.739 31.6095 135.19C30.9931 134.906 29.6025 136.583 28.9288 135.673Z" fill="#0F0F0F"/>
<path d="M22.4874 134.513L20.5139 136.048C20.5139 136.048 22.6881 136.773 23.6581 138.303C24.6282 139.833 26.5252 139.549 25.5695 137.355C25.2712 136.703 24.8452 136.115 24.3161 135.628C23.787 135.14 23.1654 134.761 22.4874 134.513Z" fill="white"/>
<path d="M19.0901 137.095L16.978 138.407C16.978 138.407 19.0328 139.828 19.998 141.354C20.9633 142.879 22.8412 142.387 21.8664 140.193C21.2951 138.895 20.323 137.81 19.0901 137.095Z" fill="white"/>
<path d="M15.64 139.265L13.4324 140.719C13.4324 140.719 15.5827 141.994 16.5479 143.524C17.5132 145.054 19.3911 144.557 18.4163 142.368C17.8459 141.068 16.8737 139.981 15.64 139.265Z" fill="white"/>
<path d="M28.0354 142.429C26.5636 144.41 23.0037 145.106 20.6622 146.295C18.3208 147.485 14.1253 149.422 13.246 149.1C12.3668 148.778 11.4206 147.158 10.4458 145.755C9.47103 144.353 7.62653 145.21 7.62653 145.21C5.23729 148.295 10.2929 151.436 13.4324 150.953C16.008 150.555 18.8464 148.228 19.826 147.636C21.8632 146.538 24.0508 145.74 26.3199 145.267C28.0258 145.206 29.2778 144.343 30.3004 143.159C31.323 141.975 31.1749 139.568 31.1749 139.568C31.1749 139.568 29.015 141.103 28.0354 142.429Z" fill="#0058D8"/>
<path d="M27.3854 132.073C25.2733 130.827 23.7585 131.438 23.7585 131.438V133.489C26.9888 137.715 29.3971 135.948 29.3971 135.948L29.875 134.527C29.875 134.527 28.5705 132.774 27.3854 132.073Z" fill="#0058D8"/>
<path d="M101.203 94.5883C100.689 93.2272 99.924 91.9726 98.9478 90.8881C98.9478 90.8881 91.8184 90.7223 91.3357 92.4374C91.1494 93.0912 93.3236 93.9392 93.639 95.1142C93.6882 95.3518 93.6696 95.5983 93.5851 95.826C93.5007 96.0536 93.3539 96.2534 93.1611 96.4028C91.8965 97.6773 90.5354 98.8541 89.0898 99.9229C89.0898 99.9229 90.8101 102.448 92.3488 103.713C95.0056 105.888 95.2158 111.895 96.4344 113.743C97.7102 115.676 100.391 114.586 100.391 114.586C101.469 112.601 102.112 110.412 102.277 108.164C102.441 105.915 102.124 103.657 101.347 101.538C100.563 99.3497 101.767 96.0238 101.203 94.5883Z" fill="#0F0F0F"/>
<path d="M101.461 98.7195C101.939 97.1418 103.115 95.8389 101.762 93.4369C100.41 91.0349 100.544 90.7838 97.7341 90.8359C98.4746 91.8909 99.1343 92.9995 99.7076 94.1523C100.214 95.2894 99.9178 97.5208 100.109 99.3638C100.357 101.78 101.308 104.575 101.447 105.163C101.657 106.11 101.509 110.118 100.353 112.051C99.8366 112.909 96.7545 112.776 96.4534 113.743C96.1524 114.709 98.2119 114.956 99.6789 114.97C101.996 114.998 103.473 109.635 102.857 105.528C102.24 101.42 100.998 100.278 101.461 98.7195Z" fill="#0058D8"/>
<path d="M93.7536 101.292C93.0031 101.82 92.339 102.459 91.7849 103.187L92.6355 103.964C92.6355 103.964 93.7919 103.187 95.0247 102.187C96.0234 101.382 94.7428 100.539 93.7536 101.292Z" fill="white"/>
<path d="M95.7368 103.647C94.9053 104.121 93.4192 104.945 93.4192 104.945L94.0786 106.219C94.0786 106.219 95.2302 105.641 96.4201 104.945C97.6099 104.248 96.573 103.163 95.7368 103.647Z" fill="white"/>
<path d="M96.9599 106.219C96.1858 106.556 94.542 107.461 94.542 107.461L94.8908 108.64C94.8908 108.64 96.3244 107.996 97.4234 107.461C98.5225 106.925 97.7292 105.883 96.9599 106.219Z" fill="white"/>
<path d="M87.7089 99.994C88.0816 100.638 90.3132 101.534 90.3132 101.534C92.8219 100.079 93.1802 96.4028 93.1802 96.4028C93.1802 96.4028 90.7241 97.0945 89.109 97.6441C87.4939 98.1937 87.3314 99.3497 87.7089 99.994Z" fill="#0058D8"/>
<path d="M47.4025 92.7357C45.2091 92.3519 41.5632 92.7025 39.7856 89.8693C37.7547 86.6335 36.4072 83.9377 36.4072 83.9377L35.1648 85.3164C35.1648 85.3164 37.0427 88.0027 39.0545 91.3854C40.7747 94.2801 45.0132 95.1756 47.7178 94.7018C50.4225 94.228 55.8747 94.228 55.8747 94.228L56.7444 92.2856C56.7444 92.2856 49.6006 93.1147 47.4025 92.7357Z" fill="#0F0F0F"/>
<path d="M54.895 54.4551C55.5831 53.2423 57.0071 49.5848 55.1626 46.9222C51.6075 41.7865 47.7178 49.6416 47.7178 49.6416L50.365 50.9682C50.365 50.9682 51.5931 48.0071 52.8164 48.2487C54.0397 48.4904 54.1735 52.2284 52.0901 54.4551C50.4872 56.204 49.3188 58.3001 48.6782 60.5763L56.7443 63.7268L57.5041 61.1921L51.6075 59.2686C51.6075 59.2686 54.2069 55.6633 54.895 54.4551Z" fill="#0F0F0F"/>
<path d="M66.9943 67.8676C64.2897 68.5498 61.2171 70.1938 55.3157 67.6449C51.2779 65.9015 46.4468 63.1868 46.4468 63.1868L45.969 64.0632C45.969 64.0632 50.4321 66.9059 53.1749 68.0903C55.9178 69.2747 58.5651 70.8524 62.6793 69.9854C66.7936 69.1184 76.7663 67.1428 76.7663 67.1428L76.6372 66.0957C76.6372 66.0957 70.6164 66.9769 66.9943 67.8676Z" fill="#0F0F0F"/>
<path d="M66.9941 45.4724C68.1894 45.4684 69.3609 45.1408 70.3821 44.5248C72.2505 43.2694 72.5515 42.2318 72.5515 42.2318C71.3713 41.9994 70.1775 41.8412 68.9772 41.758C67.5102 41.7249 66.9941 45.4724 66.9941 45.4724Z" fill="#AF4922"/>
<path d="M21.8329 58.1838C21.8323 60.6873 21.036 63.1269 19.5572 65.1562C18.0785 67.1854 15.9924 68.7011 13.5953 69.4879C11.1982 70.2747 8.61199 70.2926 6.20405 69.5391C3.79611 68.7855 1.68886 67.2989 0.181641 65.2903C0.483149 67.0697 1.18832 68.758 2.24394 70.2278C3.29956 71.6976 4.67806 72.9104 6.27544 73.7749C7.87283 74.6394 9.64738 75.1329 11.4652 75.2182C13.283 75.3036 15.0967 74.9784 16.7693 74.2674C18.4419 73.5564 19.9298 72.478 21.1207 71.1137C22.3116 69.7493 23.1745 68.1346 23.6441 66.3914C24.1138 64.6482 24.1781 62.822 23.832 61.0506C23.486 59.2792 22.7387 57.6088 21.6465 56.1655C21.7678 56.8316 21.8301 57.5069 21.8329 58.1838Z" fill="#DB5E00"/>
<path d="M12.0417 51.3804C10.4627 51.3797 8.89902 51.6876 7.44008 52.2865C5.98114 52.8853 4.65553 53.7633 3.539 54.8703C2.42247 55.9773 1.53691 57.2916 0.932937 58.7381C0.328965 60.1846 0.018416 61.7349 0.0190439 63.3004C0.0208526 63.9724 0.0816113 64.6429 0.200628 65.3045C1.70785 67.313 3.81509 68.7997 6.22303 69.5532C8.63097 70.3067 11.2172 70.2888 13.6143 69.502C16.0114 68.7152 18.0975 67.1995 19.5762 65.1703C21.055 63.141 21.8513 60.7014 21.8519 58.1979C21.8483 57.5258 21.7859 56.8553 21.6655 56.1939C20.552 54.7021 19.1015 53.4897 17.4302 52.6538C15.759 51.8179 13.9135 51.3818 12.0417 51.3804Z" fill="#FF7300"/>
<path d="M5.57173 53.2375L5.25635 53.446C5.25635 53.446 11.6738 58.9939 14.431 65.1766C17.1882 71.3593 18.0244 73.6097 18.0244 73.6097L18.4402 73.3917C17.2775 69.6172 15.7141 65.9756 13.7764 62.5282C10.8806 57.3214 5.57173 53.2375 5.57173 53.2375Z" fill="#0F0F0F"/>
<path d="M7.92738 70.5537C6.9239 67.6021 7.89871 61.1589 5.25621 58.2357C4.86033 57.7632 4.37042 57.3767 3.81709 57.1003C3.26376 56.824 2.65891 56.6638 2.0403 56.6296L1.8396 56.9565C1.8396 56.9565 5.66238 57.2076 6.46517 62.1301C7.11026 65.9913 6.5464 69.6346 8.2332 72.1314C9.92 74.6282 12.0225 75.2014 12.0225 75.2014H12.4669C12.4669 75.2014 8.89263 73.4011 7.92738 70.5537Z" fill="#0F0F0F"/>
<path d="M13.805 55.5732C11.0765 55.27 10.1208 51.5557 10.1208 51.5557L9.78149 51.5936C9.78149 51.5936 10.1208 55.1468 13.2268 55.9902C14.4883 56.3313 17.7233 55.9902 19.4388 57.7384C22.583 60.979 23.0609 68.0239 23.0609 68.0239L23.3619 67.2801C23.3619 67.2801 23.3619 62.6087 20.815 58.8328C18.593 55.5401 16.8202 55.9049 13.805 55.5732Z" fill="#0F0F0F"/>
<path d="M91.7992 42.2366C91.6893 42.7103 92.6928 44.3733 92.6928 44.3733L94.2744 40.9242C93.8061 40.7679 92.32 40.0714 91.7992 42.2366Z" fill="#C1592B"/>
<path d="M54.2739 16.1936C54.5871 16.2291 54.8904 16.324 55.1675 16.4731C55.1675 16.4731 54.9572 15.4829 54.3026 15.4829C53.6479 15.4829 53.1366 16.4731 53.1366 16.4731C52.8404 17.3733 53.7005 17.4206 53.9108 17.5628C54.7518 18.0365 54.0971 18.9841 54.8139 18.624C55.5307 18.2639 54.9907 17.4064 54.661 17.2643C54.3313 17.1222 53.9729 17.2311 53.8534 16.9374C53.7339 16.6436 53.9012 16.1936 54.2739 16.1936Z" fill="#C1592B"/>
</g>
<defs>
<clipPath id="clip0_1854_821">
<rect width="103" height="151" fill="white"/>
</clipPath>
</defs>
</svg>
