<svg width="212" height="212" viewBox="0 0 212 212" fill="none" xmlns="http://www.w3.org/2000/svg">
<path d="M66.25 57.4167H176.667C181.543 57.4167 185.5 61.374 185.5 66.25V176.667C185.5 181.543 181.543 185.5 176.667 185.5H114.833L66.25 57.4167Z" fill="#2C2C2C"/>
<path d="M118.508 153.938L114.462 146.094L118.388 144.067C118.658 143.93 145.334 129.899 158.328 103.858L160.298 99.905L168.204 103.849L166.23 107.802C151.915 136.493 123.631 151.306 122.434 151.92L118.508 153.938Z" fill="#979799"/>
<path d="M167.917 150.167L164.074 148.002C163.16 147.49 141.585 135.19 126.55 114.14L133.736 109.008C147.6 128.415 168.208 140.194 168.412 140.309L172.25 142.482L167.917 150.167ZM114.833 97.1667H176.666V106H114.833V97.1667Z" fill="#979799"/>
<path d="M141.333 88.3333H150.166V106H141.333V88.3333Z" fill="#979799"/>
<path d="M145.75 154.583H35.3333C30.4573 154.583 26.5 150.626 26.5 145.75V35.3333C26.5 30.4573 30.4573 26.5 35.3333 26.5H97.1667L145.75 154.583Z" fill="#FD8629"/>
<path d="M114.833 185.5L101.583 154.583H145.75L114.833 185.5Z" fill="#C65701"/>
<path d="M84.676 106H65.4193L60.9673 119.25H48.583L69.624 61.8333H80.4183L101.583 119.25H89.1943L84.676 106ZM68.2107 97.1667H81.9068L75.0212 76.3465L68.2107 97.1667Z" fill="white"/>
</svg>
